# xmcd
#
# Track frame offsets:
#  150
#  18723
#  37821
#  53019
#  73467
#  88515
#  106788
#  127386
#  142584
#  158007
#  174105
#  190728
#  210051
#  230799
#  250872
#  267870
#  278718
#  295416
#  312039
#  330537
#
# Disc length: 4578 seconds
#
# Revision: 0
# Processed by: cddbd v1.5.1PL2 Copyright (c) Steve Scherf et al.
# Submitted via: Collectorz.com_Music_Collector 6.9
#
DISCID=1211e014
DTITLE=Various Artist - Country Hits 2006 The Best Of New Country
DYEAR=2005
DGENRE=General Country
TTITLE0=The Road Hammers - I'm A Road Hammer
TTITLE1=Sugarland - Baby Girl
TTITLE2=Big and Rich - Save A Horse (Ride A Cowboy)
TTITLE3=Paul Brandt - Convoy
TTITLE4=George Canyon - I'll Never Do Better Than You
TTITLE5=Terri Clark - The World Needs A Drink
TTITLE6=Dierks Bentley - Lot Of Leavin' Left To Do
TTITLE7=Hot Apple Pie - Hillbillies
TTITLE8=Emerson Drive - If You Were My Girl
TTITLE9=Gary Allan - Nothing On But The Radio
TTITLE10=Reba McEntire - He Gets That From Me
TTITLE11=Jason McCoy - I Lie
TTITLE12=Le Ann Womack - I May Hate Myself In The Morning
TTITLE13=Doc Walker - I Am Ready
TTITLE14=Deric Ruttan - Take The Wheel
TTITLE15=Joe Nichols - What's A Guy Gotta Do
TTITLE16=Johnny Reid - You Still Owe Me
TTITLE17=Jake Matthews - Kings For A Day
TTITLE18=Alana Levandoski - Red Headed Girl
TTITLE19=Moot Davis - Last Train Home
EXTD=
EXTT0=
EXTT1=
EXTT2=
EXTT3=
EXTT4=
EXTT5=
EXTT6=
EXTT7=
EXTT8=
EXTT9=
EXTT10=
EXTT11=
EXTT12=
EXTT13=
EXTT14=
EXTT15=
EXTT16=
EXTT17=
EXTT18=
EXTT19=
PLAYORDER=
